<?xml version="1.0" encoding="UTF-8" standalone="no"?>
<svg
   class="main-svg"
   width="684"
   height="400"
   style=""
   viewBox="0 0 684 400"
   version="1.1"
   id="svg10640"
   sodipodi:docname="race language chart bw.svg"
   inkscape:export-filename="race language chart bw.png"
   inkscape:export-xdpi="600"
   inkscape:export-ydpi="600"
   inkscape:version="1.2.1 (9c6d41e410, 2022-07-14)"
   xmlns:inkscape="http://www.inkscape.org/namespaces/inkscape"
   xmlns:sodipodi="http://sodipodi.sourceforge.net/DTD/sodipodi-0.dtd"
   xmlns="http://www.w3.org/2000/svg"
   xmlns:svg="http://www.w3.org/2000/svg">
  <sodipodi:namedview
     id="namedview10642"
     pagecolor="#ffffff"
     bordercolor="#999999"
     borderopacity="1"
     inkscape:showpageshadow="0"
     inkscape:pageopacity="1"
     inkscape:pagecheckerboard="0"
     inkscape:deskcolor="#d1d1d1"
     showgrid="false"
     inkscape:zoom="0.59"
     inkscape:cx="-5.0847458"
     inkscape:cy="200.84746"
     inkscape:window-width="1500"
     inkscape:window-height="930"
     inkscape:window-x="-7"
     inkscape:window-y="-7"
     inkscape:window-maximized="1"
     inkscape:current-layer="svg10640" />
  <rect
     x="0"
     y="0"
     width="684"
     height="400"
     style="fill: rgb(255, 255, 255); fill-opacity: 0;"
     id="rect10207" />
  <defs
     id="defs-783322">
    <g
       class="clips"
       id="g10221">
      <clipPath
         id="clip783322xyplot"
         class="plotclip">
        <rect
           width="469"
           height="296"
           id="rect10209" />
      </clipPath>
      <clipPath
         class="axesclip"
         id="clip783322x">
        <rect
           x="89"
           y="0"
           width="469"
           height="400"
           id="rect10212" />
      </clipPath>
      <clipPath
         class="axesclip"
         id="clip783322y">
        <rect
           x="0"
           y="50"
           width="684"
           height="296"
           id="rect10215" />
      </clipPath>
      <clipPath
         class="axesclip"
         id="clip783322xy">
        <rect
           x="89"
           y="50"
           width="469"
           height="296"
           id="rect10218" />
      </clipPath>
    </g>
    <g
       class="gradients"
       id="g10223" />
    <g
       class="patterns"
       id="g10225" />
  </defs>
  <g
     class="bglayer"
     id="g10230">
    <rect
       class="bg"
       x="85"
       y="46"
       width="477"
       height="304"
       style="fill: rgb(255, 255, 255); fill-opacity: 0.4; stroke-width: 0;"
       id="rect10228" />
  </g>
  <g
     class="layer-below"
     id="g10236">
    <g
       class="imagelayer"
       id="g10232" />
    <g
       class="shapelayer"
       id="g10234" />
  </g>
  <g
     class="cartesianlayer"
     id="g10490">
    <g
       class="subplot xy"
       id="g10488">
      <g
         class="layer-subplot"
         id="g10242">
        <g
           class="shapelayer"
           id="g10238" />
        <g
           class="imagelayer"
           id="g10240" />
      </g>
      <g
         class="gridlayer"
         id="g10248">
        <g
           class="x"
           id="g10244" />
        <g
           class="y"
           id="g10246" />
      </g>
      <g
         class="zerolinelayer"
         id="g10250" />
      <path
         class="xlines-below"
         id="path10252" />
      <path
         class="ylines-below"
         id="path10254" />
      <g
         class="overlines-below"
         id="g10256" />
      <g
         class="xaxislayer-below"
         id="g10258" />
      <g
         class="yaxislayer-below"
         id="g10260" />
      <g
         class="overaxes-below"
         id="g10262" />
      <g
         class="plot"
         transform="translate(89,50)"
         clip-path="url(#clip783322xyplot)"
         id="g10416">
        <g
           class="scatterlayer mlayer"
           id="g10414">
          <g
             class="trace scatter trace77676a"
             style="stroke-miterlimit: 2; opacity: 0.8;"
             id="g10292">
            <g
               class="fills"
               id="g10264" />
            <g
               class="errorbars"
               id="g10266" />
            <g
               class="lines"
               id="g10268" />
            <g
               class="points"
               id="g10288">
              <path
                 class="point"
                 transform="translate(37.83,24.8)"
                 d="M3,0A3,3 0 1,1 0,-3A3,3 0 0,1 3,0Z"
                 style="opacity: 0.8; stroke-width: 1px; fill: rgb(255, 255, 255); fill-opacity: 1; stroke: rgb(0, 0, 0); stroke-opacity: 1;"
                 id="path10270" />
              <path
                 class="point"
                 transform="translate(88.24,24.8)"
                 d="M1,0A1,1 0 1,1 0,-1A1,1 0 0,1 1,0Z"
                 style="opacity: 0.8; stroke-width: 1px; fill: rgb(255, 255, 255); fill-opacity: 1; stroke: rgb(0, 0, 0); stroke-opacity: 1;"
                 id="path10272" />
              <path
                 class="point"
                 transform="translate(138.66,24.8)"
                 d="M3,0A3,3 0 1,1 0,-3A3,3 0 0,1 3,0Z"
                 style="opacity: 0.8; stroke-width: 1px; fill: rgb(255, 255, 255); fill-opacity: 1; stroke: rgb(0, 0, 0); stroke-opacity: 1;"
                 id="path10274" />
              <path
                 class="point"
                 transform="translate(189.08,24.8)"
                 d="M1.5,0A1.5,1.5 0 1,1 0,-1.5A1.5,1.5 0 0,1 1.5,0Z"
                 style="opacity: 0.8; stroke-width: 1px; fill: rgb(255, 255, 255); fill-opacity: 1; stroke: rgb(0, 0, 0); stroke-opacity: 1;"
                 id="path10276" />
              <path
                 class="point"
                 transform="translate(239.5,24.8)"
                 d="M2,0A2,2 0 1,1 0,-2A2,2 0 0,1 2,0Z"
                 style="opacity: 0.8; stroke-width: 1px; fill: rgb(255, 255, 255); fill-opacity: 1; stroke: rgb(0, 0, 0); stroke-opacity: 1;"
                 id="path10278" />
              <path
                 class="point"
                 transform="translate(289.92,24.8)"
                 d="M7.5,0A7.5,7.5 0 1,1 0,-7.5A7.5,7.5 0 0,1 7.5,0Z"
                 style="opacity: 0.8; stroke-width: 1px; fill: rgb(255, 255, 255); fill-opacity: 1; stroke: rgb(0, 0, 0); stroke-opacity: 1;"
                 id="path10280" />
              <path
                 class="point"
                 transform="translate(340.34,24.8)"
                 d="M8,0A8,8 0 1,1 0,-8A8,8 0 0,1 8,0Z"
                 style="opacity: 0.8; stroke-width: 1px; fill: rgb(255, 255, 255); fill-opacity: 1; stroke: rgb(0, 0, 0); stroke-opacity: 1;"
                 id="path10282" />
              <path
                 class="point"
                 transform="translate(390.76,24.8)"
                 d="M2.5,0A2.5,2.5 0 1,1 0,-2.5A2.5,2.5 0 0,1 2.5,0Z"
                 style="opacity: 0.8; stroke-width: 1px; fill: rgb(255, 255, 255); fill-opacity: 1; stroke: rgb(0, 0, 0); stroke-opacity: 1;"
                 id="path10284" />
              <path
                 class="point"
                 transform="translate(441.18,24.8)"
                 d="M2.5,0A2.5,2.5 0 1,1 0,-2.5A2.5,2.5 0 0,1 2.5,0Z"
                 style="opacity: 0.8; stroke-width: 1px; fill: rgb(255, 255, 255); fill-opacity: 1; stroke: rgb(0, 0, 0); stroke-opacity: 1;"
                 id="path10286" />
            </g>
            <g
               class="text"
               id="g10290" />
          </g>
          <g
             class="trace scatter trace3c0c61"
             style="stroke-miterlimit: 2; opacity: 0.8;"
             id="g10322">
            <g
               class="fills"
               id="g10294" />
            <g
               class="errorbars"
               id="g10296" />
            <g
               class="lines"
               id="g10298" />
            <g
               class="points"
               id="g10318">
              <path
                 class="point"
                 transform="translate(37.83,84.53)"
                 d="M1.5,0A1.5,1.5 0 1,1 0,-1.5A1.5,1.5 0 0,1 1.5,0Z"
                 style="opacity: 0.8; stroke-width: 1px; fill: rgb(191, 191, 191); fill-opacity: 1; stroke: rgb(0, 0, 0); stroke-opacity: 1;"
                 id="path10300" />
              <path
                 class="point"
                 transform="translate(88.24,84.53)"
                 d="M1,0A1,1 0 1,1 0,-1A1,1 0 0,1 1,0Z"
                 style="opacity: 0.8; stroke-width: 1px; fill: rgb(191, 191, 191); fill-opacity: 1; stroke: rgb(0, 0, 0); stroke-opacity: 1;"
                 id="path10302" />
              <path
                 class="point"
                 transform="translate(138.66,84.53)"
                 d="M3,0A3,3 0 1,1 0,-3A3,3 0 0,1 3,0Z"
                 style="opacity: 0.8; stroke-width: 1px; fill: rgb(191, 191, 191); fill-opacity: 1; stroke: rgb(0, 0, 0); stroke-opacity: 1;"
                 id="path10304" />
              <path
                 class="point"
                 transform="translate(189.08,84.53)"
                 d="M9,0A9,9 0 1,1 0,-9A9,9 0 0,1 9,0Z"
                 style="opacity: 0.8; stroke-width: 1px; fill: rgb(191, 191, 191); fill-opacity: 1; stroke: rgb(0, 0, 0); stroke-opacity: 1;"
                 id="path10306" />
              <path
                 class="point"
                 transform="translate(239.5,84.53)"
                 d="M8.5,0A8.5,8.5 0 1,1 0,-8.5A8.5,8.5 0 0,1 8.5,0Z"
                 style="opacity: 0.8; stroke-width: 1px; fill: rgb(191, 191, 191); fill-opacity: 1; stroke: rgb(0, 0, 0); stroke-opacity: 1;"
                 id="path10308" />
              <path
                 class="point"
                 transform="translate(289.92,84.53)"
                 d="M3,0A3,3 0 1,1 0,-3A3,3 0 0,1 3,0Z"
                 style="opacity: 0.8; stroke-width: 1px; fill: rgb(191, 191, 191); fill-opacity: 1; stroke: rgb(0, 0, 0); stroke-opacity: 1;"
                 id="path10310" />
              <path
                 class="point"
                 transform="translate(340.34,84.53)"
                 d="M7.5,0A7.5,7.5 0 1,1 0,-7.5A7.5,7.5 0 0,1 7.5,0Z"
                 style="opacity: 0.8; stroke-width: 1px; fill: rgb(191, 191, 191); fill-opacity: 1; stroke: rgb(0, 0, 0); stroke-opacity: 1;"
                 id="path10312" />
              <path
                 class="point"
                 transform="translate(390.76,84.53)"
                 d="M10,0A10,10 0 1,1 0,-10A10,10 0 0,1 10,0Z"
                 style="opacity: 0.8; stroke-width: 1px; fill: rgb(191, 191, 191); fill-opacity: 1; stroke: rgb(0, 0, 0); stroke-opacity: 1;"
                 id="path10314" />
              <path
                 class="point"
                 transform="translate(441.18,84.53)"
                 d="M1.5,0A1.5,1.5 0 1,1 0,-1.5A1.5,1.5 0 0,1 1.5,0Z"
                 style="opacity: 0.8; stroke-width: 1px; fill: rgb(191, 191, 191); fill-opacity: 1; stroke: rgb(0, 0, 0); stroke-opacity: 1;"
                 id="path10316" />
            </g>
            <g
               class="text"
               id="g10320" />
          </g>
          <g
             class="trace scatter trace20cae6"
             style="stroke-miterlimit: 2; opacity: 0.8;"
             id="g10352">
            <g
               class="fills"
               id="g10324" />
            <g
               class="errorbars"
               id="g10326" />
            <g
               class="lines"
               id="g10328" />
            <g
               class="points"
               id="g10348">
              <path
                 class="point"
                 transform="translate(37.83,144.25)"
                 d="M2.5,0A2.5,2.5 0 1,1 0,-2.5A2.5,2.5 0 0,1 2.5,0Z"
                 style="opacity: 0.8; stroke-width: 1px; fill: rgb(128, 128, 128); fill-opacity: 1; stroke: rgb(0, 0, 0); stroke-opacity: 1;"
                 id="path10330" />
              <path
                 class="point"
                 transform="translate(88.24,144.25)"
                 d="M1,0A1,1 0 1,1 0,-1A1,1 0 0,1 1,0Z"
                 style="opacity: 0.8; stroke-width: 1px; fill: rgb(128, 128, 128); fill-opacity: 1; stroke: rgb(0, 0, 0); stroke-opacity: 1;"
                 id="path10332" />
              <path
                 class="point"
                 transform="translate(138.66,144.25)"
                 d="M2.5,0A2.5,2.5 0 1,1 0,-2.5A2.5,2.5 0 0,1 2.5,0Z"
                 style="opacity: 0.8; stroke-width: 1px; fill: rgb(128, 128, 128); fill-opacity: 1; stroke: rgb(0, 0, 0); stroke-opacity: 1;"
                 id="path10334" />
              <path
                 class="point"
                 transform="translate(189.08,144.25)"
                 d="M2.5,0A2.5,2.5 0 1,1 0,-2.5A2.5,2.5 0 0,1 2.5,0Z"
                 style="opacity: 0.8; stroke-width: 1px; fill: rgb(128, 128, 128); fill-opacity: 1; stroke: rgb(0, 0, 0); stroke-opacity: 1;"
                 id="path10336" />
              <path
                 class="point"
                 transform="translate(239.5,144.25)"
                 d="M1,0A1,1 0 1,1 0,-1A1,1 0 0,1 1,0Z"
                 style="opacity: 0.8; stroke-width: 1px; fill: rgb(128, 128, 128); fill-opacity: 1; stroke: rgb(0, 0, 0); stroke-opacity: 1;"
                 id="path10338" />
              <path
                 class="point"
                 transform="translate(289.92,144.25)"
                 d="M3,0A3,3 0 1,1 0,-3A3,3 0 0,1 3,0Z"
                 style="opacity: 0.8; stroke-width: 1px; fill: rgb(128, 128, 128); fill-opacity: 1; stroke: rgb(0, 0, 0); stroke-opacity: 1;"
                 id="path10340" />
              <path
                 class="point"
                 transform="translate(340.34,144.25)"
                 d="M53,0A53,53 0 1,1 0,-53A53,53 0 0,1 53,0Z"
                 style="opacity: 0.8; stroke-width: 1px; fill: rgb(128, 128, 128); fill-opacity: 1; stroke: rgb(0, 0, 0); stroke-opacity: 1;"
                 id="path10342" />
              <path
                 class="point"
                 transform="translate(390.76,144.25)"
                 d="M7.5,0A7.5,7.5 0 1,1 0,-7.5A7.5,7.5 0 0,1 7.5,0Z"
                 style="opacity: 0.8; stroke-width: 1px; fill: rgb(128, 128, 128); fill-opacity: 1; stroke: rgb(0, 0, 0); stroke-opacity: 1;"
                 id="path10344" />
              <path
                 class="point"
                 transform="translate(441.18,144.25)"
                 d="M3,0A3,3 0 1,1 0,-3A3,3 0 0,1 3,0Z"
                 style="opacity: 0.8; stroke-width: 1px; fill: rgb(128, 128, 128); fill-opacity: 1; stroke: rgb(0, 0, 0); stroke-opacity: 1;"
                 id="path10346" />
            </g>
            <g
               class="text"
               id="g10350" />
          </g>
          <g
             class="trace scatter tracec27c6c"
             style="stroke-miterlimit: 2; opacity: 0.8;"
             id="g10382">
            <g
               class="fills"
               id="g10354" />
            <g
               class="errorbars"
               id="g10356" />
            <g
               class="lines"
               id="g10358" />
            <g
               class="points"
               id="g10378">
              <path
                 class="point"
                 transform="translate(37.83,203.98)"
                 d="M11.5,0A11.5,11.5 0 1,1 0,-11.5A11.5,11.5 0 0,1 11.5,0Z"
                 style="opacity: 0.8; stroke-width: 1px; fill: rgb(64, 64, 64); fill-opacity: 1; stroke: rgb(0, 0, 0); stroke-opacity: 1;"
                 id="path10360" />
              <path
                 class="point"
                 transform="translate(88.24,203.98)"
                 d="M14.5,0A14.5,14.5 0 1,1 0,-14.5A14.5,14.5 0 0,1 14.5,0Z"
                 style="opacity: 0.8; stroke-width: 1px; fill: rgb(64, 64, 64); fill-opacity: 1; stroke: rgb(0, 0, 0); stroke-opacity: 1;"
                 id="path10362" />
              <path
                 class="point"
                 transform="translate(138.66,203.98)"
                 d="M2.5,0A2.5,2.5 0 1,1 0,-2.5A2.5,2.5 0 0,1 2.5,0Z"
                 style="opacity: 0.8; stroke-width: 1px; fill: rgb(64, 64, 64); fill-opacity: 1; stroke: rgb(0, 0, 0); stroke-opacity: 1;"
                 id="path10364" />
              <path
                 class="point"
                 transform="translate(189.08,203.98)"
                 d="M6,0A6,6 0 1,1 0,-6A6,6 0 0,1 6,0Z"
                 style="opacity: 0.8; stroke-width: 1px; fill: rgb(64, 64, 64); fill-opacity: 1; stroke: rgb(0, 0, 0); stroke-opacity: 1;"
                 id="path10366" />
              <path
                 class="point"
                 transform="translate(239.5,203.98)"
                 d="M2.5,0A2.5,2.5 0 1,1 0,-2.5A2.5,2.5 0 0,1 2.5,0Z"
                 style="opacity: 0.8; stroke-width: 1px; fill: rgb(64, 64, 64); fill-opacity: 1; stroke: rgb(0, 0, 0); stroke-opacity: 1;"
                 id="path10368" />
              <path
                 class="point"
                 transform="translate(289.92,203.98)"
                 d="M10.5,0A10.5,10.5 0 1,1 0,-10.5A10.5,10.5 0 0,1 10.5,0Z"
                 style="opacity: 0.8; stroke-width: 1px; fill: rgb(64, 64, 64); fill-opacity: 1; stroke: rgb(0, 0, 0); stroke-opacity: 1;"
                 id="path10370" />
              <path
                 class="point"
                 transform="translate(340.34,203.98)"
                 d="M0.5,0A0.5,0.5 0 1,1 0,-0.5A0.5,0.5 0 0,1 0.5,0Z"
                 style="opacity: 0.8; stroke-width: 1px; fill: rgb(64, 64, 64); fill-opacity: 1; stroke: rgb(0, 0, 0); stroke-opacity: 1;"
                 id="path10372" />
              <path
                 class="point"
                 transform="translate(390.76,203.98)"
                 d="M1.5,0A1.5,1.5 0 1,1 0,-1.5A1.5,1.5 0 0,1 1.5,0Z"
                 style="opacity: 0.8; stroke-width: 1px; fill: rgb(64, 64, 64); fill-opacity: 1; stroke: rgb(0, 0, 0); stroke-opacity: 1;"
                 id="path10374" />
              <path
                 class="point"
                 transform="translate(441.18,203.98)"
                 d="M3.5,0A3.5,3.5 0 1,1 0,-3.5A3.5,3.5 0 0,1 3.5,0Z"
                 style="opacity: 0.8; stroke-width: 1px; fill: rgb(64, 64, 64); fill-opacity: 1; stroke: rgb(0, 0, 0); stroke-opacity: 1;"
                 id="path10376" />
            </g>
            <g
               class="text"
               id="g10380" />
          </g>
          <g
             class="trace scatter trace24f072"
             style="stroke-miterlimit: 2; opacity: 0.8;"
             id="g10412">
            <g
               class="fills"
               id="g10384" />
            <g
               class="errorbars"
               id="g10386" />
            <g
               class="lines"
               id="g10388" />
            <g
               class="points"
               id="g10408">
              <path
                 class="point"
                 transform="translate(37.83,263.7)"
                 d="M3.5,0A3.5,3.5 0 1,1 0,-3.5A3.5,3.5 0 0,1 3.5,0Z"
                 style="opacity: 0.8; stroke-width: 1px; fill: rgb(0, 0, 0); fill-opacity: 1; stroke: rgb(0, 0, 0); stroke-opacity: 1;"
                 id="path10390" />
              <path
                 class="point"
                 transform="translate(88.24,263.7)"
                 d="M1,0A1,1 0 1,1 0,-1A1,1 0 0,1 1,0Z"
                 style="opacity: 0.8; stroke-width: 1px; fill: rgb(0, 0, 0); fill-opacity: 1; stroke: rgb(0, 0, 0); stroke-opacity: 1;"
                 id="path10392" />
              <path
                 class="point"
                 transform="translate(138.66,263.7)"
                 d="M1.5,0A1.5,1.5 0 1,1 0,-1.5A1.5,1.5 0 0,1 1.5,0Z"
                 style="opacity: 0.8; stroke-width: 1px; fill: rgb(0, 0, 0); fill-opacity: 1; stroke: rgb(0, 0, 0); stroke-opacity: 1;"
                 id="path10394" />
              <path
                 class="point"
                 transform="translate(189.08,263.7)"
                 d="M8,0A8,8 0 1,1 0,-8A8,8 0 0,1 8,0Z"
                 style="opacity: 0.8; stroke-width: 1px; fill: rgb(0, 0, 0); fill-opacity: 1; stroke: rgb(0, 0, 0); stroke-opacity: 1;"
                 id="path10396" />
              <path
                 class="point"
                 transform="translate(239.5,263.7)"
                 d="M4,0A4,4 0 1,1 0,-4A4,4 0 0,1 4,0Z"
                 style="opacity: 0.8; stroke-width: 1px; fill: rgb(0, 0, 0); fill-opacity: 1; stroke: rgb(0, 0, 0); stroke-opacity: 1;"
                 id="path10398" />
              <path
                 class="point"
                 transform="translate(289.92,263.7)"
                 d="M11.5,0A11.5,11.5 0 1,1 0,-11.5A11.5,11.5 0 0,1 11.5,0Z"
                 style="opacity: 0.8; stroke-width: 1px; fill: rgb(0, 0, 0); fill-opacity: 1; stroke: rgb(0, 0, 0); stroke-opacity: 1;"
                 id="path10400" />
              <path
                 class="point"
                 transform="translate(340.34,263.7)"
                 d="M14,0A14,14 0 1,1 0,-14A14,14 0 0,1 14,0Z"
                 style="opacity: 0.8; stroke-width: 1px; fill: rgb(0, 0, 0); fill-opacity: 1; stroke: rgb(0, 0, 0); stroke-opacity: 1;"
                 id="path10402" />
              <path
                 class="point"
                 transform="translate(390.76,263.7)"
                 d="M4,0A4,4 0 1,1 0,-4A4,4 0 0,1 4,0Z"
                 style="opacity: 0.8; stroke-width: 1px; fill: rgb(0, 0, 0); fill-opacity: 1; stroke: rgb(0, 0, 0); stroke-opacity: 1;"
                 id="path10404" />
              <path
                 class="point"
                 transform="translate(441.18,263.7)"
                 d="M0.5,0A0.5,0.5 0 1,1 0,-0.5A0.5,0.5 0 0,1 0.5,0Z"
                 style="opacity: 0.8; stroke-width: 1px; fill: rgb(0, 0, 0); fill-opacity: 1; stroke: rgb(0, 0, 0); stroke-opacity: 1;"
                 id="path10406" />
            </g>
            <g
               class="text"
               id="g10410" />
          </g>
        </g>
      </g>
      <g
         class="overplot"
         id="g10418" />
      <path
         class="xlines-above crisp"
         d="M0,0"
         style="fill: none;"
         id="path10420" />
      <path
         class="ylines-above crisp"
         d="M0,0"
         style="fill: none;"
         id="path10422" />
      <g
         class="overlines-above"
         id="g10424" />
      <g
         class="xaxislayer-above"
         id="g10462">
        <g
           class="xtick"
           id="g10428">
          <text
             text-anchor="middle"
             x="0"
             y="366"
             transform="translate(126.83,0)"
             style="font-family: 'Playfair Display', 'Helvetica Neue', Helvetica, Arial, sans-serif; font-size: 15px; fill: rgb(54, 54, 54); fill-opacity: 1; white-space: pre; opacity: 1;"
             id="text10426">1</text>
        </g>
        <g
           class="xtick"
           id="g10432">
          <text
             text-anchor="middle"
             x="0"
             y="366"
             style="font-family: 'Playfair Display', 'Helvetica Neue', Helvetica, Arial, sans-serif; font-size: 15px; fill: rgb(54, 54, 54); fill-opacity: 1; white-space: pre; opacity: 1;"
             transform="translate(177.24,0)"
             id="text10430">2</text>
        </g>
        <g
           class="xtick"
           id="g10436">
          <text
             text-anchor="middle"
             x="0"
             y="366"
             style="font-family: 'Playfair Display', 'Helvetica Neue', Helvetica, Arial, sans-serif; font-size: 15px; fill: rgb(54, 54, 54); fill-opacity: 1; white-space: pre; opacity: 1;"
             transform="translate(227.66,0)"
             id="text10434">3</text>
        </g>
        <g
           class="xtick"
           id="g10440">
          <text
             text-anchor="middle"
             x="0"
             y="366"
             style="font-family: 'Playfair Display', 'Helvetica Neue', Helvetica, Arial, sans-serif; font-size: 15px; fill: rgb(54, 54, 54); fill-opacity: 1; white-space: pre; opacity: 1;"
             transform="translate(278.08000000000004,0)"
             id="text10438">4</text>
        </g>
        <g
           class="xtick"
           id="g10444">
          <text
             text-anchor="middle"
             x="0"
             y="366"
             style="font-family: 'Playfair Display', 'Helvetica Neue', Helvetica, Arial, sans-serif; font-size: 15px; fill: rgb(54, 54, 54); fill-opacity: 1; white-space: pre; opacity: 1;"
             transform="translate(328.5,0)"
             id="text10442">5</text>
        </g>
        <g
           class="xtick"
           id="g10448">
          <text
             text-anchor="middle"
             x="0"
             y="366"
             style="font-family: 'Playfair Display', 'Helvetica Neue', Helvetica, Arial, sans-serif; font-size: 15px; fill: rgb(54, 54, 54); fill-opacity: 1; white-space: pre; opacity: 1;"
             transform="translate(378.92,0)"
             id="text10446">6</text>
        </g>
        <g
           class="xtick"
           id="g10452">
          <text
             text-anchor="middle"
             x="0"
             y="366"
             style="font-family: 'Playfair Display', 'Helvetica Neue', Helvetica, Arial, sans-serif; font-size: 15px; fill: rgb(54, 54, 54); fill-opacity: 1; white-space: pre; opacity: 1;"
             transform="translate(429.34,0)"
             id="text10450">7</text>
        </g>
        <g
           class="xtick"
           id="g10456">
          <text
             text-anchor="middle"
             x="0"
             y="366"
             style="font-family: 'Playfair Display', 'Helvetica Neue', Helvetica, Arial, sans-serif; font-size: 15px; fill: rgb(54, 54, 54); fill-opacity: 1; white-space: pre; opacity: 1;"
             transform="translate(479.76,0)"
             id="text10454">8</text>
        </g>
        <g
           class="xtick"
           id="g10460">
          <text
             text-anchor="middle"
             x="0"
             y="366"
             style="font-family: 'Playfair Display', 'Helvetica Neue', Helvetica, Arial, sans-serif; font-size: 15px; fill: rgb(54, 54, 54); fill-opacity: 1; white-space: pre; opacity: 1;"
             transform="translate(530.1800000000001,0)"
             id="text10458">9</text>
        </g>
      </g>
      <g
         class="yaxislayer-above"
         id="g10484">
        <g
           class="ytick"
           id="g10466">
          <text
             text-anchor="end"
             x="84"
             y="5.25"
             transform="translate(0,74.8)"
             style="font-family: 'Playfair Display', 'Helvetica Neue', Helvetica, Arial, sans-serif; font-size: 15px; fill: rgb(54, 54, 54); fill-opacity: 1; white-space: pre; opacity: 1;"
             id="text10464">Black</text>
        </g>
        <g
           class="ytick"
           id="g10470">
          <text
             text-anchor="end"
             x="84"
             y="5.25"
             style="font-family: 'Playfair Display', 'Helvetica Neue', Helvetica, Arial, sans-serif; font-size: 15px; fill: rgb(54, 54, 54); fill-opacity: 1; white-space: pre; opacity: 1;"
             transform="translate(0,134.53)"
             id="text10468">Blood</text>
        </g>
        <g
           class="ytick"
           id="g10474">
          <text
             text-anchor="end"
             x="84"
             y="5.25"
             style="font-family: 'Playfair Display', 'Helvetica Neue', Helvetica, Arial, sans-serif; font-size: 15px; fill: rgb(54, 54, 54); fill-opacity: 1; white-space: pre; opacity: 1;"
             transform="translate(0,194.25)"
             id="text10472">N-Word</text>
        </g>
        <g
           class="ytick"
           id="g10478">
          <text
             text-anchor="end"
             x="84"
             y="5.25"
             style="font-family: 'Playfair Display', 'Helvetica Neue', Helvetica, Arial, sans-serif; font-size: 15px; fill: rgb(54, 54, 54); fill-opacity: 1; white-space: pre; opacity: 1;"
             transform="translate(0,253.98)"
             id="text10476">Negro</text>
        </g>
        <g
           class="ytick"
           id="g10482">
          <text
             text-anchor="end"
             x="84"
             y="5.25"
             style="font-family: 'Playfair Display', 'Helvetica Neue', Helvetica, Arial, sans-serif; font-size: 15px; fill: rgb(54, 54, 54); fill-opacity: 1; white-space: pre; opacity: 1;"
             transform="translate(0,313.7)"
             id="text10480">White</text>
        </g>
      </g>
      <g
         class="overaxes-above"
         id="g10486" />
    </g>
  </g>
  <g
     class="polarlayer"
     id="g10492" />
  <g
     class="ternarylayer"
     id="g10494" />
  <g
     class="geolayer"
     id="g10496" />
  <g
     class="funnelarealayer"
     id="g10498" />
  <g
     class="pielayer"
     id="g10500" />
  <g
     class="iciclelayer"
     id="g10502" />
  <g
     class="treemaplayer"
     id="g10504" />
  <g
     class="sunburstlayer"
     id="g10506" />
  <g
     class="glimages"
     id="g10508" />
  <defs
     id="topdefs-783322">
    <g
       class="clips"
       id="g10510" />
    <clipPath
       id="legend783322">
      <rect
         width="105"
         height="146"
         x="0"
         y="0"
         id="rect10512" />
    </clipPath>
  </defs>
  <g
     class="layer-above"
     id="g10520">
    <g
       class="imagelayer"
       id="g10516" />
    <g
       class="shapelayer"
       id="g10518" />
  </g>
  <g
     class="infolayer"
     id="g10638">
    <g
       class="legend"
       pointer-events="all"
       transform="translate(567.38,50)"
       id="g10624">
      <rect
         class="bg"
         shape-rendering="crispEdges"
         width="105"
         height="146"
         x="0"
         y="0"
         style="stroke: rgb(68, 68, 68); stroke-opacity: 1; fill: rgb(255, 255, 255); fill-opacity: 0; stroke-width: 0px;"
         id="rect10522" />
      <g
         class="scrollbox"
         transform=""
         clip-path="url(#legend783322)"
         id="g10620">
        <text
           class="legendtitletext"
           text-anchor="start"
           x="2"
           y="23.400000000000002"
           style="font-family: 'Playfair Display', 'Helvetica Neue', Helvetica, Arial, sans-serif; font-size: 18px; fill: rgb(54, 54, 54); fill-opacity: 1; white-space: pre;"
           id="text10526"><tspan
             style="font-weight:bold"
             id="tspan10524">Racial Word</tspan></text>
        <g
           class="groups"
           id="g10618">
          <g
             class="traces"
             transform="translate(0,39.650000000000006)"
             style="opacity: 1;"
             id="g10544">
            <text
               class="legendtext"
               text-anchor="start"
               x="40"
               y="5.85"
               style="font-family: 'Playfair Display', 'Helvetica Neue', Helvetica, Arial, sans-serif; font-size: 15px; fill: rgb(54, 54, 54); fill-opacity: 1; white-space: pre;"
               id="text10528">Black</text>
            <g
               class="layers"
               style="opacity: 0.8;"
               id="g10540">
              <g
                 class="legendfill"
                 id="g10530" />
              <g
                 class="legendlines"
                 id="g10532" />
              <g
                 class="legendsymbols"
                 id="g10538">
                <g
                   class="legendpoints"
                   id="g10536">
                  <path
                     class="scatterpts"
                     transform="translate(20,0)"
                     d="M6,0A6,6 0 1,1 0,-6A6,6 0 0,1 6,0Z"
                     style="opacity: 0.8; stroke-width: 2px; fill: rgb(255, 255, 255); fill-opacity: 1; stroke: rgb(0, 0, 0); stroke-opacity: 1;"
                     id="path10534" />
                </g>
              </g>
            </g>
            <rect
               class="legendtoggle"
               x="0"
               y="-11.25"
               width="94.015625"
               height="22.5"
               style="fill: rgb(0, 0, 0); fill-opacity: 0;"
               id="rect10542" />
          </g>
          <g
             class="traces"
             transform="translate(0,62.150000000000006)"
             style="opacity: 1;"
             id="g10562">
            <text
               class="legendtext"
               text-anchor="start"
               x="40"
               y="5.85"
               style="font-family: 'Playfair Display', 'Helvetica Neue', Helvetica, Arial, sans-serif; font-size: 15px; fill: rgb(54, 54, 54); fill-opacity: 1; white-space: pre;"
               id="text10546">Blood</text>
            <g
               class="layers"
               style="opacity: 0.8;"
               id="g10558">
              <g
                 class="legendfill"
                 id="g10548" />
              <g
                 class="legendlines"
                 id="g10550" />
              <g
                 class="legendsymbols"
                 id="g10556">
                <g
                   class="legendpoints"
                   id="g10554">
                  <path
                     class="scatterpts"
                     transform="translate(20,0)"
                     d="M6,0A6,6 0 1,1 0,-6A6,6 0 0,1 6,0Z"
                     style="opacity: 0.8; stroke-width: 2px; fill: rgb(191, 191, 191); fill-opacity: 1; stroke: rgb(0, 0, 0); stroke-opacity: 1;"
                     id="path10552" />
                </g>
              </g>
            </g>
            <rect
               class="legendtoggle"
               x="0"
               y="-11.25"
               width="94.015625"
               height="22.5"
               style="fill: rgb(0, 0, 0); fill-opacity: 0;"
               id="rect10560" />
          </g>
          <g
             class="traces"
             transform="translate(0,84.65)"
             style="opacity: 1;"
             id="g10580">
            <text
               class="legendtext"
               text-anchor="start"
               x="40"
               y="5.85"
               style="font-family: 'Playfair Display', 'Helvetica Neue', Helvetica, Arial, sans-serif; font-size: 15px; fill: rgb(54, 54, 54); fill-opacity: 1; white-space: pre;"
               id="text10564">N-Word</text>
            <g
               class="layers"
               style="opacity: 0.8;"
               id="g10576">
              <g
                 class="legendfill"
                 id="g10566" />
              <g
                 class="legendlines"
                 id="g10568" />
              <g
                 class="legendsymbols"
                 id="g10574">
                <g
                   class="legendpoints"
                   id="g10572">
                  <path
                     class="scatterpts"
                     transform="translate(20,0)"
                     d="M6,0A6,6 0 1,1 0,-6A6,6 0 0,1 6,0Z"
                     style="opacity: 0.8; stroke-width: 2px; fill: rgb(128, 128, 128); fill-opacity: 1; stroke: rgb(0, 0, 0); stroke-opacity: 1;"
                     id="path10570" />
                </g>
              </g>
            </g>
            <rect
               class="legendtoggle"
               x="0"
               y="-11.25"
               width="94.015625"
               height="22.5"
               style="fill: rgb(0, 0, 0); fill-opacity: 0;"
               id="rect10578" />
          </g>
          <g
             class="traces"
             transform="translate(0,107.15)"
             style="opacity: 1;"
             id="g10598">
            <text
               class="legendtext"
               text-anchor="start"
               x="40"
               y="5.85"
               style="font-family: 'Playfair Display', 'Helvetica Neue', Helvetica, Arial, sans-serif; font-size: 15px; fill: rgb(54, 54, 54); fill-opacity: 1; white-space: pre;"
               id="text10582">Negro</text>
            <g
               class="layers"
               style="opacity: 0.8;"
               id="g10594">
              <g
                 class="legendfill"
                 id="g10584" />
              <g
                 class="legendlines"
                 id="g10586" />
              <g
                 class="legendsymbols"
                 id="g10592">
                <g
                   class="legendpoints"
                   id="g10590">
                  <path
                     class="scatterpts"
                     transform="translate(20,0)"
                     d="M6,0A6,6 0 1,1 0,-6A6,6 0 0,1 6,0Z"
                     style="opacity: 0.8; stroke-width: 2px; fill: rgb(64, 64, 64); fill-opacity: 1; stroke: rgb(0, 0, 0); stroke-opacity: 1;"
                     id="path10588" />
                </g>
              </g>
            </g>
            <rect
               class="legendtoggle"
               x="0"
               y="-11.25"
               width="94.015625"
               height="22.5"
               style="fill: rgb(0, 0, 0); fill-opacity: 0;"
               id="rect10596" />
          </g>
          <g
             class="traces"
             transform="translate(0,129.65)"
             style="opacity: 1;"
             id="g10616">
            <text
               class="legendtext"
               text-anchor="start"
               x="40"
               y="5.85"
               style="font-family: 'Playfair Display', 'Helvetica Neue', Helvetica, Arial, sans-serif; font-size: 15px; fill: rgb(54, 54, 54); fill-opacity: 1; white-space: pre;"
               id="text10600">White</text>
            <g
               class="layers"
               style="opacity: 0.8;"
               id="g10612">
              <g
                 class="legendfill"
                 id="g10602" />
              <g
                 class="legendlines"
                 id="g10604" />
              <g
                 class="legendsymbols"
                 id="g10610">
                <g
                   class="legendpoints"
                   id="g10608">
                  <path
                     class="scatterpts"
                     transform="translate(20,0)"
                     d="M6,0A6,6 0 1,1 0,-6A6,6 0 0,1 6,0Z"
                     style="opacity: 0.8; stroke-width: 2px; fill: rgb(0, 0, 0); fill-opacity: 1; stroke: rgb(0, 0, 0); stroke-opacity: 1;"
                     id="path10606" />
                </g>
              </g>
            </g>
            <rect
               class="legendtoggle"
               x="0"
               y="-11.25"
               width="94.015625"
               height="22.5"
               style="fill: rgb(0, 0, 0); fill-opacity: 0;"
               id="rect10614" />
          </g>
        </g>
      </g>
      <rect
         class="scrollbar"
         rx="20"
         ry="3"
         width="0"
         height="0"
         x="0"
         y="0"
         style="fill: rgb(128, 139, 164); fill-opacity: 1;"
         id="rect10622" />
    </g>
    <g
       class="g-gtitle"
       id="g10630">
      <text
         class="gtitle"
         x="342"
         y="25"
         text-anchor="middle"
         dy="0em"
         style="font-family: 'Playfair Display', 'Helvetica Neue', Helvetica, Arial, sans-serif; font-size: 21px; fill: rgb(54, 54, 54); opacity: 1; font-weight: normal; white-space: pre;"
         id="text10628">Use of Top 5 Racial words by Chapter <tspan
   style="font-style:italic"
   id="tspan10626">Absalom, Absalom!</tspan></text>
    </g>
    <g
       class="g-xtitle"
       transform="translate(0,-14.5)"
       id="g10634">
      <text
         class="xtitle"
         x="323.5"
         y="410"
         text-anchor="middle"
         style="font-family: 'Playfair Display', 'Helvetica Neue', Helvetica, Arial, sans-serif; font-size: 18px; fill: rgb(54, 54, 54); opacity: 1; font-weight: normal; white-space: pre;"
         id="text10632">Chapter</text>
    </g>
    <g
       class="g-ytitle"
       id="g10636" />
  </g>
</svg>
