<?xml version="1.0" encoding="UTF-8" standalone="no"?>
<svg
   class="main-svg"
   width="774.566"
   height="400"
   style=""
   viewBox="0 0 774.566 400"
   version="1.1"
   id="svg10203"
   sodipodi:docname="race language chart.svg"
   inkscape:export-filename="race language chart.png"
   inkscape:export-xdpi="600"
   inkscape:export-ydpi="600"
   inkscape:version="1.2.1 (9c6d41e410, 2022-07-14)"
   xmlns:inkscape="http://www.inkscape.org/namespaces/inkscape"
   xmlns:sodipodi="http://sodipodi.sourceforge.net/DTD/sodipodi-0.dtd"
   xmlns="http://www.w3.org/2000/svg"
   xmlns:svg="http://www.w3.org/2000/svg">
  <sodipodi:namedview
     id="namedview10205"
     pagecolor="#ffffff"
     bordercolor="#999999"
     borderopacity="1"
     inkscape:showpageshadow="0"
     inkscape:pageopacity="1"
     inkscape:pagecheckerboard="0"
     inkscape:deskcolor="#d1d1d1"
     showgrid="false"
     inkscape:zoom="0.59"
     inkscape:cx="38.983051"
     inkscape:cy="200.84746"
     inkscape:window-width="1500"
     inkscape:window-height="930"
     inkscape:window-x="-7"
     inkscape:window-y="-7"
     inkscape:window-maximized="1"
     inkscape:current-layer="svg10203" />
  <rect
     x="0"
     y="0"
     width="774.566"
     height="400"
     style="fill: rgb(255, 255, 255); fill-opacity: 0;"
     id="rect9770" />
  <defs
     id="defs-411683">
    <g
       class="clips"
       id="g9784">
      <clipPath
         id="clip411683xyplot"
         class="plotclip">
        <rect
           width="557"
           height="296"
           id="rect9772" />
      </clipPath>
      <clipPath
         class="axesclip"
         id="clip411683x">
        <rect
           x="89"
           y="0"
           width="557"
           height="400"
           id="rect9775" />
      </clipPath>
      <clipPath
         class="axesclip"
         id="clip411683y">
        <rect
           x="0"
           y="50"
           width="774.566"
           height="296"
           id="rect9778" />
      </clipPath>
      <clipPath
         class="axesclip"
         id="clip411683xy">
        <rect
           x="89"
           y="50"
           width="557"
           height="296"
           id="rect9781" />
      </clipPath>
    </g>
    <g
       class="gradients"
       id="g9786" />
    <g
       class="patterns"
       id="g9788" />
  </defs>
  <g
     class="bglayer"
     id="g9793">
    <rect
       class="bg"
       x="85"
       y="46"
       width="565"
       height="304"
       style="fill: rgb(255, 255, 255); fill-opacity: 0.4; stroke-width: 0;"
       id="rect9791" />
  </g>
  <g
     class="layer-below"
     id="g9799">
    <g
       class="imagelayer"
       id="g9795" />
    <g
       class="shapelayer"
       id="g9797" />
  </g>
  <g
     class="cartesianlayer"
     id="g10053">
    <g
       class="subplot xy"
       id="g10051">
      <g
         class="layer-subplot"
         id="g9805">
        <g
           class="shapelayer"
           id="g9801" />
        <g
           class="imagelayer"
           id="g9803" />
      </g>
      <g
         class="gridlayer"
         id="g9811">
        <g
           class="x"
           id="g9807" />
        <g
           class="y"
           id="g9809" />
      </g>
      <g
         class="zerolinelayer"
         id="g9813" />
      <path
         class="xlines-below"
         id="path9815" />
      <path
         class="ylines-below"
         id="path9817" />
      <g
         class="overlines-below"
         id="g9819" />
      <g
         class="xaxislayer-below"
         id="g9821" />
      <g
         class="yaxislayer-below"
         id="g9823" />
      <g
         class="overaxes-below"
         id="g9825" />
      <g
         class="plot"
         transform="translate(89,50)"
         clip-path="url(#clip411683xyplot)"
         id="g9979">
        <g
           class="scatterlayer mlayer"
           id="g9977">
          <g
             class="trace scatter trace1ba6e5"
             style="stroke-miterlimit: 2; opacity: 0.8;"
             id="g9855">
            <g
               class="fills"
               id="g9827" />
            <g
               class="errorbars"
               id="g9829" />
            <g
               class="lines"
               id="g9831" />
            <g
               class="points"
               id="g9851">
              <path
                 class="point"
                 transform="translate(42.23,24.8)"
                 d="M3,0A3,3 0 1,1 0,-3A3,3 0 0,1 3,0Z"
                 style="opacity: 0.8; stroke-width: 1px; fill: rgb(19, 44, 83); fill-opacity: 1; stroke: rgb(19, 44, 83); stroke-opacity: 1;"
                 id="path9833" />
              <path
                 class="point"
                 transform="translate(102.54,24.8)"
                 d="M1,0A1,1 0 1,1 0,-1A1,1 0 0,1 1,0Z"
                 style="opacity: 0.8; stroke-width: 1px; fill: rgb(19, 44, 83); fill-opacity: 1; stroke: rgb(19, 44, 83); stroke-opacity: 1;"
                 id="path9835" />
              <path
                 class="point"
                 transform="translate(162.86,24.8)"
                 d="M3,0A3,3 0 1,1 0,-3A3,3 0 0,1 3,0Z"
                 style="opacity: 0.8; stroke-width: 1px; fill: rgb(19, 44, 83); fill-opacity: 1; stroke: rgb(19, 44, 83); stroke-opacity: 1;"
                 id="path9837" />
              <path
                 class="point"
                 transform="translate(223.18,24.8)"
                 d="M1.5,0A1.5,1.5 0 1,1 0,-1.5A1.5,1.5 0 0,1 1.5,0Z"
                 style="opacity: 0.8; stroke-width: 1px; fill: rgb(19, 44, 83); fill-opacity: 1; stroke: rgb(19, 44, 83); stroke-opacity: 1;"
                 id="path9839" />
              <path
                 class="point"
                 transform="translate(283.5,24.8)"
                 d="M2,0A2,2 0 1,1 0,-2A2,2 0 0,1 2,0Z"
                 style="opacity: 0.8; stroke-width: 1px; fill: rgb(19, 44, 83); fill-opacity: 1; stroke: rgb(19, 44, 83); stroke-opacity: 1;"
                 id="path9841" />
              <path
                 class="point"
                 transform="translate(343.82,24.8)"
                 d="M7.5,0A7.5,7.5 0 1,1 0,-7.5A7.5,7.5 0 0,1 7.5,0Z"
                 style="opacity: 0.8; stroke-width: 1px; fill: rgb(19, 44, 83); fill-opacity: 1; stroke: rgb(19, 44, 83); stroke-opacity: 1;"
                 id="path9843" />
              <path
                 class="point"
                 transform="translate(404.14,24.8)"
                 d="M8,0A8,8 0 1,1 0,-8A8,8 0 0,1 8,0Z"
                 style="opacity: 0.8; stroke-width: 1px; fill: rgb(19, 44, 83); fill-opacity: 1; stroke: rgb(19, 44, 83); stroke-opacity: 1;"
                 id="path9845" />
              <path
                 class="point"
                 transform="translate(464.46,24.8)"
                 d="M2.5,0A2.5,2.5 0 1,1 0,-2.5A2.5,2.5 0 0,1 2.5,0Z"
                 style="opacity: 0.8; stroke-width: 1px; fill: rgb(19, 44, 83); fill-opacity: 1; stroke: rgb(19, 44, 83); stroke-opacity: 1;"
                 id="path9847" />
              <path
                 class="point"
                 transform="translate(524.78,24.8)"
                 d="M2.5,0A2.5,2.5 0 1,1 0,-2.5A2.5,2.5 0 0,1 2.5,0Z"
                 style="opacity: 0.8; stroke-width: 1px; fill: rgb(19, 44, 83); fill-opacity: 1; stroke: rgb(19, 44, 83); stroke-opacity: 1;"
                 id="path9849" />
            </g>
            <g
               class="text"
               id="g9853" />
          </g>
          <g
             class="trace scatter trace43f0d8"
             style="stroke-miterlimit: 2; opacity: 0.8;"
             id="g9885">
            <g
               class="fills"
               id="g9857" />
            <g
               class="errorbars"
               id="g9859" />
            <g
               class="lines"
               id="g9861" />
            <g
               class="points"
               id="g9881">
              <path
                 class="point"
                 transform="translate(42.23,84.53)"
                 d="M1.5,0A1.5,1.5 0 1,1 0,-1.5A1.5,1.5 0 0,1 1.5,0Z"
                 style="opacity: 0.8; stroke-width: 1px; fill: rgb(242, 122, 24); fill-opacity: 1; stroke: rgb(242, 122, 24); stroke-opacity: 1;"
                 id="path9863" />
              <path
                 class="point"
                 transform="translate(102.54,84.53)"
                 d="M1,0A1,1 0 1,1 0,-1A1,1 0 0,1 1,0Z"
                 style="opacity: 0.8; stroke-width: 1px; fill: rgb(242, 122, 24); fill-opacity: 1; stroke: rgb(242, 122, 24); stroke-opacity: 1;"
                 id="path9865" />
              <path
                 class="point"
                 transform="translate(162.86,84.53)"
                 d="M3,0A3,3 0 1,1 0,-3A3,3 0 0,1 3,0Z"
                 style="opacity: 0.8; stroke-width: 1px; fill: rgb(242, 122, 24); fill-opacity: 1; stroke: rgb(242, 122, 24); stroke-opacity: 1;"
                 id="path9867" />
              <path
                 class="point"
                 transform="translate(223.18,84.53)"
                 d="M9,0A9,9 0 1,1 0,-9A9,9 0 0,1 9,0Z"
                 style="opacity: 0.8; stroke-width: 1px; fill: rgb(242, 122, 24); fill-opacity: 1; stroke: rgb(242, 122, 24); stroke-opacity: 1;"
                 id="path9869" />
              <path
                 class="point"
                 transform="translate(283.5,84.53)"
                 d="M8.5,0A8.5,8.5 0 1,1 0,-8.5A8.5,8.5 0 0,1 8.5,0Z"
                 style="opacity: 0.8; stroke-width: 1px; fill: rgb(242, 122, 24); fill-opacity: 1; stroke: rgb(242, 122, 24); stroke-opacity: 1;"
                 id="path9871" />
              <path
                 class="point"
                 transform="translate(343.82,84.53)"
                 d="M3,0A3,3 0 1,1 0,-3A3,3 0 0,1 3,0Z"
                 style="opacity: 0.8; stroke-width: 1px; fill: rgb(242, 122, 24); fill-opacity: 1; stroke: rgb(242, 122, 24); stroke-opacity: 1;"
                 id="path9873" />
              <path
                 class="point"
                 transform="translate(404.14,84.53)"
                 d="M7.5,0A7.5,7.5 0 1,1 0,-7.5A7.5,7.5 0 0,1 7.5,0Z"
                 style="opacity: 0.8; stroke-width: 1px; fill: rgb(242, 122, 24); fill-opacity: 1; stroke: rgb(242, 122, 24); stroke-opacity: 1;"
                 id="path9875" />
              <path
                 class="point"
                 transform="translate(464.46,84.53)"
                 d="M10,0A10,10 0 1,1 0,-10A10,10 0 0,1 10,0Z"
                 style="opacity: 0.8; stroke-width: 1px; fill: rgb(242, 122, 24); fill-opacity: 1; stroke: rgb(242, 122, 24); stroke-opacity: 1;"
                 id="path9877" />
              <path
                 class="point"
                 transform="translate(524.78,84.53)"
                 d="M1.5,0A1.5,1.5 0 1,1 0,-1.5A1.5,1.5 0 0,1 1.5,0Z"
                 style="opacity: 0.8; stroke-width: 1px; fill: rgb(242, 122, 24); fill-opacity: 1; stroke: rgb(242, 122, 24); stroke-opacity: 1;"
                 id="path9879" />
            </g>
            <g
               class="text"
               id="g9883" />
          </g>
          <g
             class="trace scatter trace707d0b"
             style="stroke-miterlimit: 2; opacity: 0.8;"
             id="g9915">
            <g
               class="fills"
               id="g9887" />
            <g
               class="errorbars"
               id="g9889" />
            <g
               class="lines"
               id="g9891" />
            <g
               class="points"
               id="g9911">
              <path
                 class="point"
                 transform="translate(42.23,144.25)"
                 d="M2.5,0A2.5,2.5 0 1,1 0,-2.5A2.5,2.5 0 0,1 2.5,0Z"
                 style="opacity: 0.8; stroke-width: 1px; fill: rgb(174, 7, 0); fill-opacity: 1; stroke: rgb(174, 7, 0); stroke-opacity: 1;"
                 id="path9893" />
              <path
                 class="point"
                 transform="translate(102.54,144.25)"
                 d="M1,0A1,1 0 1,1 0,-1A1,1 0 0,1 1,0Z"
                 style="opacity: 0.8; stroke-width: 1px; fill: rgb(174, 7, 0); fill-opacity: 1; stroke: rgb(174, 7, 0); stroke-opacity: 1;"
                 id="path9895" />
              <path
                 class="point"
                 transform="translate(162.86,144.25)"
                 d="M2.5,0A2.5,2.5 0 1,1 0,-2.5A2.5,2.5 0 0,1 2.5,0Z"
                 style="opacity: 0.8; stroke-width: 1px; fill: rgb(174, 7, 0); fill-opacity: 1; stroke: rgb(174, 7, 0); stroke-opacity: 1;"
                 id="path9897" />
              <path
                 class="point"
                 transform="translate(223.18,144.25)"
                 d="M2.5,0A2.5,2.5 0 1,1 0,-2.5A2.5,2.5 0 0,1 2.5,0Z"
                 style="opacity: 0.8; stroke-width: 1px; fill: rgb(174, 7, 0); fill-opacity: 1; stroke: rgb(174, 7, 0); stroke-opacity: 1;"
                 id="path9899" />
              <path
                 class="point"
                 transform="translate(283.5,144.25)"
                 d="M1,0A1,1 0 1,1 0,-1A1,1 0 0,1 1,0Z"
                 style="opacity: 0.8; stroke-width: 1px; fill: rgb(174, 7, 0); fill-opacity: 1; stroke: rgb(174, 7, 0); stroke-opacity: 1;"
                 id="path9901" />
              <path
                 class="point"
                 transform="translate(343.82,144.25)"
                 d="M3,0A3,3 0 1,1 0,-3A3,3 0 0,1 3,0Z"
                 style="opacity: 0.8; stroke-width: 1px; fill: rgb(174, 7, 0); fill-opacity: 1; stroke: rgb(174, 7, 0); stroke-opacity: 1;"
                 id="path9903" />
              <path
                 class="point"
                 transform="translate(404.14,144.25)"
                 d="M53,0A53,53 0 1,1 0,-53A53,53 0 0,1 53,0Z"
                 style="opacity: 0.8; stroke-width: 1px; fill: rgb(174, 7, 0); fill-opacity: 1; stroke: rgb(174, 7, 0); stroke-opacity: 1;"
                 id="path9905" />
              <path
                 class="point"
                 transform="translate(464.46,144.25)"
                 d="M7.5,0A7.5,7.5 0 1,1 0,-7.5A7.5,7.5 0 0,1 7.5,0Z"
                 style="opacity: 0.8; stroke-width: 1px; fill: rgb(174, 7, 0); fill-opacity: 1; stroke: rgb(174, 7, 0); stroke-opacity: 1;"
                 id="path9907" />
              <path
                 class="point"
                 transform="translate(524.78,144.25)"
                 d="M3,0A3,3 0 1,1 0,-3A3,3 0 0,1 3,0Z"
                 style="opacity: 0.8; stroke-width: 1px; fill: rgb(174, 7, 0); fill-opacity: 1; stroke: rgb(174, 7, 0); stroke-opacity: 1;"
                 id="path9909" />
            </g>
            <g
               class="text"
               id="g9913" />
          </g>
          <g
             class="trace scatter tracee2ea21"
             style="stroke-miterlimit: 2; opacity: 0.8;"
             id="g9945">
            <g
               class="fills"
               id="g9917" />
            <g
               class="errorbars"
               id="g9919" />
            <g
               class="lines"
               id="g9921" />
            <g
               class="points"
               id="g9941">
              <path
                 class="point"
                 transform="translate(42.23,203.98)"
                 d="M11.5,0A11.5,11.5 0 1,1 0,-11.5A11.5,11.5 0 0,1 11.5,0Z"
                 style="opacity: 0.8; stroke-width: 1px; fill: rgb(121, 180, 115); fill-opacity: 1; stroke: rgb(121, 180, 115); stroke-opacity: 1;"
                 id="path9923" />
              <path
                 class="point"
                 transform="translate(102.54,203.98)"
                 d="M14.5,0A14.5,14.5 0 1,1 0,-14.5A14.5,14.5 0 0,1 14.5,0Z"
                 style="opacity: 0.8; stroke-width: 1px; fill: rgb(121, 180, 115); fill-opacity: 1; stroke: rgb(121, 180, 115); stroke-opacity: 1;"
                 id="path9925" />
              <path
                 class="point"
                 transform="translate(162.86,203.98)"
                 d="M2.5,0A2.5,2.5 0 1,1 0,-2.5A2.5,2.5 0 0,1 2.5,0Z"
                 style="opacity: 0.8; stroke-width: 1px; fill: rgb(121, 180, 115); fill-opacity: 1; stroke: rgb(121, 180, 115); stroke-opacity: 1;"
                 id="path9927" />
              <path
                 class="point"
                 transform="translate(223.18,203.98)"
                 d="M6,0A6,6 0 1,1 0,-6A6,6 0 0,1 6,0Z"
                 style="opacity: 0.8; stroke-width: 1px; fill: rgb(121, 180, 115); fill-opacity: 1; stroke: rgb(121, 180, 115); stroke-opacity: 1;"
                 id="path9929" />
              <path
                 class="point"
                 transform="translate(283.5,203.98)"
                 d="M2.5,0A2.5,2.5 0 1,1 0,-2.5A2.5,2.5 0 0,1 2.5,0Z"
                 style="opacity: 0.8; stroke-width: 1px; fill: rgb(121, 180, 115); fill-opacity: 1; stroke: rgb(121, 180, 115); stroke-opacity: 1;"
                 id="path9931" />
              <path
                 class="point"
                 transform="translate(343.82,203.98)"
                 d="M10.5,0A10.5,10.5 0 1,1 0,-10.5A10.5,10.5 0 0,1 10.5,0Z"
                 style="opacity: 0.8; stroke-width: 1px; fill: rgb(121, 180, 115); fill-opacity: 1; stroke: rgb(121, 180, 115); stroke-opacity: 1;"
                 id="path9933" />
              <path
                 class="point"
                 transform="translate(404.14,203.98)"
                 d="M0.5,0A0.5,0.5 0 1,1 0,-0.5A0.5,0.5 0 0,1 0.5,0Z"
                 style="opacity: 0.8; stroke-width: 1px; fill: rgb(121, 180, 115); fill-opacity: 1; stroke: rgb(121, 180, 115); stroke-opacity: 1;"
                 id="path9935" />
              <path
                 class="point"
                 transform="translate(464.46,203.98)"
                 d="M1.5,0A1.5,1.5 0 1,1 0,-1.5A1.5,1.5 0 0,1 1.5,0Z"
                 style="opacity: 0.8; stroke-width: 1px; fill: rgb(121, 180, 115); fill-opacity: 1; stroke: rgb(121, 180, 115); stroke-opacity: 1;"
                 id="path9937" />
              <path
                 class="point"
                 transform="translate(524.78,203.98)"
                 d="M3.5,0A3.5,3.5 0 1,1 0,-3.5A3.5,3.5 0 0,1 3.5,0Z"
                 style="opacity: 0.8; stroke-width: 1px; fill: rgb(121, 180, 115); fill-opacity: 1; stroke: rgb(121, 180, 115); stroke-opacity: 1;"
                 id="path9939" />
            </g>
            <g
               class="text"
               id="g9943" />
          </g>
          <g
             class="trace scatter tracebb7902"
             style="stroke-miterlimit: 2; opacity: 0.8;"
             id="g9975">
            <g
               class="fills"
               id="g9947" />
            <g
               class="errorbars"
               id="g9949" />
            <g
               class="lines"
               id="g9951" />
            <g
               class="points"
               id="g9971">
              <path
                 class="point"
                 transform="translate(42.23,263.7)"
                 d="M3.5,0A3.5,3.5 0 1,1 0,-3.5A3.5,3.5 0 0,1 3.5,0Z"
                 style="opacity: 0.8; stroke-width: 1px; fill: rgb(56, 114, 108); fill-opacity: 1; stroke: rgb(56, 114, 108); stroke-opacity: 1;"
                 id="path9953" />
              <path
                 class="point"
                 transform="translate(102.54,263.7)"
                 d="M1,0A1,1 0 1,1 0,-1A1,1 0 0,1 1,0Z"
                 style="opacity: 0.8; stroke-width: 1px; fill: rgb(56, 114, 108); fill-opacity: 1; stroke: rgb(56, 114, 108); stroke-opacity: 1;"
                 id="path9955" />
              <path
                 class="point"
                 transform="translate(162.86,263.7)"
                 d="M1.5,0A1.5,1.5 0 1,1 0,-1.5A1.5,1.5 0 0,1 1.5,0Z"
                 style="opacity: 0.8; stroke-width: 1px; fill: rgb(56, 114, 108); fill-opacity: 1; stroke: rgb(56, 114, 108); stroke-opacity: 1;"
                 id="path9957" />
              <path
                 class="point"
                 transform="translate(223.18,263.7)"
                 d="M8,0A8,8 0 1,1 0,-8A8,8 0 0,1 8,0Z"
                 style="opacity: 0.8; stroke-width: 1px; fill: rgb(56, 114, 108); fill-opacity: 1; stroke: rgb(56, 114, 108); stroke-opacity: 1;"
                 id="path9959" />
              <path
                 class="point"
                 transform="translate(283.5,263.7)"
                 d="M4,0A4,4 0 1,1 0,-4A4,4 0 0,1 4,0Z"
                 style="opacity: 0.8; stroke-width: 1px; fill: rgb(56, 114, 108); fill-opacity: 1; stroke: rgb(56, 114, 108); stroke-opacity: 1;"
                 id="path9961" />
              <path
                 class="point"
                 transform="translate(343.82,263.7)"
                 d="M11.5,0A11.5,11.5 0 1,1 0,-11.5A11.5,11.5 0 0,1 11.5,0Z"
                 style="opacity: 0.8; stroke-width: 1px; fill: rgb(56, 114, 108); fill-opacity: 1; stroke: rgb(56, 114, 108); stroke-opacity: 1;"
                 id="path9963" />
              <path
                 class="point"
                 transform="translate(404.14,263.7)"
                 d="M14,0A14,14 0 1,1 0,-14A14,14 0 0,1 14,0Z"
                 style="opacity: 0.8; stroke-width: 1px; fill: rgb(56, 114, 108); fill-opacity: 1; stroke: rgb(56, 114, 108); stroke-opacity: 1;"
                 id="path9965" />
              <path
                 class="point"
                 transform="translate(464.46,263.7)"
                 d="M4,0A4,4 0 1,1 0,-4A4,4 0 0,1 4,0Z"
                 style="opacity: 0.8; stroke-width: 1px; fill: rgb(56, 114, 108); fill-opacity: 1; stroke: rgb(56, 114, 108); stroke-opacity: 1;"
                 id="path9967" />
              <path
                 class="point"
                 transform="translate(524.78,263.7)"
                 d="M0.5,0A0.5,0.5 0 1,1 0,-0.5A0.5,0.5 0 0,1 0.5,0Z"
                 style="opacity: 0.8; stroke-width: 1px; fill: rgb(56, 114, 108); fill-opacity: 1; stroke: rgb(56, 114, 108); stroke-opacity: 1;"
                 id="path9969" />
            </g>
            <g
               class="text"
               id="g9973" />
          </g>
        </g>
      </g>
      <g
         class="overplot"
         id="g9981" />
      <path
         class="xlines-above crisp"
         d="M0,0"
         style="fill: none;"
         id="path9983" />
      <path
         class="ylines-above crisp"
         d="M0,0"
         style="fill: none;"
         id="path9985" />
      <g
         class="overlines-above"
         id="g9987" />
      <g
         class="xaxislayer-above"
         id="g10025">
        <g
           class="xtick"
           id="g9991">
          <text
             text-anchor="middle"
             x="0"
             y="366"
             transform="translate(131.23,0)"
             style="font-family: 'Playfair Display', 'Helvetica Neue', Helvetica, Arial, sans-serif; font-size: 15px; fill: rgb(54, 54, 54); fill-opacity: 1; white-space: pre; opacity: 1;"
             id="text9989">1</text>
        </g>
        <g
           class="xtick"
           id="g9995">
          <text
             text-anchor="middle"
             x="0"
             y="366"
             style="font-family: 'Playfair Display', 'Helvetica Neue', Helvetica, Arial, sans-serif; font-size: 15px; fill: rgb(54, 54, 54); fill-opacity: 1; white-space: pre; opacity: 1;"
             transform="translate(191.54000000000002,0)"
             id="text9993">2</text>
        </g>
        <g
           class="xtick"
           id="g9999">
          <text
             text-anchor="middle"
             x="0"
             y="366"
             style="font-family: 'Playfair Display', 'Helvetica Neue', Helvetica, Arial, sans-serif; font-size: 15px; fill: rgb(54, 54, 54); fill-opacity: 1; white-space: pre; opacity: 1;"
             transform="translate(251.86,0)"
             id="text9997">3</text>
        </g>
        <g
           class="xtick"
           id="g10003">
          <text
             text-anchor="middle"
             x="0"
             y="366"
             style="font-family: 'Playfair Display', 'Helvetica Neue', Helvetica, Arial, sans-serif; font-size: 15px; fill: rgb(54, 54, 54); fill-opacity: 1; white-space: pre; opacity: 1;"
             transform="translate(312.18,0)"
             id="text10001">4</text>
        </g>
        <g
           class="xtick"
           id="g10007">
          <text
             text-anchor="middle"
             x="0"
             y="366"
             style="font-family: 'Playfair Display', 'Helvetica Neue', Helvetica, Arial, sans-serif; font-size: 15px; fill: rgb(54, 54, 54); fill-opacity: 1; white-space: pre; opacity: 1;"
             transform="translate(372.5,0)"
             id="text10005">5</text>
        </g>
        <g
           class="xtick"
           id="g10011">
          <text
             text-anchor="middle"
             x="0"
             y="366"
             style="font-family: 'Playfair Display', 'Helvetica Neue', Helvetica, Arial, sans-serif; font-size: 15px; fill: rgb(54, 54, 54); fill-opacity: 1; white-space: pre; opacity: 1;"
             transform="translate(432.82,0)"
             id="text10009">6</text>
        </g>
        <g
           class="xtick"
           id="g10015">
          <text
             text-anchor="middle"
             x="0"
             y="366"
             style="font-family: 'Playfair Display', 'Helvetica Neue', Helvetica, Arial, sans-serif; font-size: 15px; fill: rgb(54, 54, 54); fill-opacity: 1; white-space: pre; opacity: 1;"
             transform="translate(493.14,0)"
             id="text10013">7</text>
        </g>
        <g
           class="xtick"
           id="g10019">
          <text
             text-anchor="middle"
             x="0"
             y="366"
             style="font-family: 'Playfair Display', 'Helvetica Neue', Helvetica, Arial, sans-serif; font-size: 15px; fill: rgb(54, 54, 54); fill-opacity: 1; white-space: pre; opacity: 1;"
             transform="translate(553.46,0)"
             id="text10017">8</text>
        </g>
        <g
           class="xtick"
           id="g10023">
          <text
             text-anchor="middle"
             x="0"
             y="366"
             style="font-family: 'Playfair Display', 'Helvetica Neue', Helvetica, Arial, sans-serif; font-size: 15px; fill: rgb(54, 54, 54); fill-opacity: 1; white-space: pre; opacity: 1;"
             transform="translate(613.78,0)"
             id="text10021">9</text>
        </g>
      </g>
      <g
         class="yaxislayer-above"
         id="g10047">
        <g
           class="ytick"
           id="g10029">
          <text
             text-anchor="end"
             x="84"
             y="5.25"
             transform="translate(0,74.8)"
             style="font-family: 'Playfair Display', 'Helvetica Neue', Helvetica, Arial, sans-serif; font-size: 15px; fill: rgb(54, 54, 54); fill-opacity: 1; white-space: pre; opacity: 1;"
             id="text10027">Black</text>
        </g>
        <g
           class="ytick"
           id="g10033">
          <text
             text-anchor="end"
             x="84"
             y="5.25"
             style="font-family: 'Playfair Display', 'Helvetica Neue', Helvetica, Arial, sans-serif; font-size: 15px; fill: rgb(54, 54, 54); fill-opacity: 1; white-space: pre; opacity: 1;"
             transform="translate(0,134.53)"
             id="text10031">Blood</text>
        </g>
        <g
           class="ytick"
           id="g10037">
          <text
             text-anchor="end"
             x="84"
             y="5.25"
             style="font-family: 'Playfair Display', 'Helvetica Neue', Helvetica, Arial, sans-serif; font-size: 15px; fill: rgb(54, 54, 54); fill-opacity: 1; white-space: pre; opacity: 1;"
             transform="translate(0,194.25)"
             id="text10035">N-Word</text>
        </g>
        <g
           class="ytick"
           id="g10041">
          <text
             text-anchor="end"
             x="84"
             y="5.25"
             style="font-family: 'Playfair Display', 'Helvetica Neue', Helvetica, Arial, sans-serif; font-size: 15px; fill: rgb(54, 54, 54); fill-opacity: 1; white-space: pre; opacity: 1;"
             transform="translate(0,253.98)"
             id="text10039">Negro</text>
        </g>
        <g
           class="ytick"
           id="g10045">
          <text
             text-anchor="end"
             x="84"
             y="5.25"
             style="font-family: 'Playfair Display', 'Helvetica Neue', Helvetica, Arial, sans-serif; font-size: 15px; fill: rgb(54, 54, 54); fill-opacity: 1; white-space: pre; opacity: 1;"
             transform="translate(0,313.7)"
             id="text10043">White</text>
        </g>
      </g>
      <g
         class="overaxes-above"
         id="g10049" />
    </g>
  </g>
  <g
     class="polarlayer"
     id="g10055" />
  <g
     class="ternarylayer"
     id="g10057" />
  <g
     class="geolayer"
     id="g10059" />
  <g
     class="funnelarealayer"
     id="g10061" />
  <g
     class="pielayer"
     id="g10063" />
  <g
     class="iciclelayer"
     id="g10065" />
  <g
     class="treemaplayer"
     id="g10067" />
  <g
     class="sunburstlayer"
     id="g10069" />
  <g
     class="glimages"
     id="g10071" />
  <defs
     id="topdefs-411683">
    <g
       class="clips"
       id="g10073" />
    <clipPath
       id="legend411683">
      <rect
         width="106"
         height="146"
         x="0"
         y="0"
         id="rect10075" />
    </clipPath>
  </defs>
  <g
     class="layer-above"
     id="g10083">
    <g
       class="imagelayer"
       id="g10079" />
    <g
       class="shapelayer"
       id="g10081" />
  </g>
  <g
     class="infolayer"
     id="g10201">
    <g
       class="legend"
       pointer-events="all"
       transform="translate(657.14,50)"
       id="g10187">
      <rect
         class="bg"
         shape-rendering="crispEdges"
         width="106"
         height="146"
         x="0"
         y="0"
         style="stroke: rgb(68, 68, 68); stroke-opacity: 1; fill: rgb(255, 255, 255); fill-opacity: 0; stroke-width: 0px;"
         id="rect10085" />
      <g
         class="scrollbox"
         transform=""
         clip-path="url(#legend411683)"
         id="g10183">
        <text
           class="legendtitletext"
           text-anchor="start"
           x="2"
           y="23.400000000000002"
           style="font-family: 'Playfair Display', 'Helvetica Neue', Helvetica, Arial, sans-serif; font-size: 18px; fill: rgb(54, 54, 54); fill-opacity: 1; white-space: pre;"
           id="text10089"><tspan
             style="font-weight:bold"
             id="tspan10087">Racial Word</tspan></text>
        <g
           class="groups"
           id="g10181">
          <g
             class="traces"
             transform="translate(0,39.650000000000006)"
             style="opacity: 1;"
             id="g10107">
            <text
               class="legendtext"
               text-anchor="start"
               x="40"
               y="5.85"
               style="font-family: 'Playfair Display', 'Helvetica Neue', Helvetica, Arial, sans-serif; font-size: 15px; fill: rgb(54, 54, 54); fill-opacity: 1; white-space: pre;"
               id="text10091">Black</text>
            <g
               class="layers"
               style="opacity: 0.8;"
               id="g10103">
              <g
                 class="legendfill"
                 id="g10093" />
              <g
                 class="legendlines"
                 id="g10095" />
              <g
                 class="legendsymbols"
                 id="g10101">
                <g
                   class="legendpoints"
                   id="g10099">
                  <path
                     class="scatterpts"
                     transform="translate(20,0)"
                     d="M6,0A6,6 0 1,1 0,-6A6,6 0 0,1 6,0Z"
                     style="opacity: 0.8; stroke-width: 2px; fill: rgb(19, 44, 83); fill-opacity: 1; stroke: rgb(19, 44, 83); stroke-opacity: 1;"
                     id="path10097" />
                </g>
              </g>
            </g>
            <rect
               class="legendtoggle"
               x="0"
               y="-11.25"
               width="93.90625381469727"
               height="22.5"
               style="fill: rgb(0, 0, 0); fill-opacity: 0;"
               id="rect10105" />
          </g>
          <g
             class="traces"
             transform="translate(0,62.150000000000006)"
             style="opacity: 1;"
             id="g10125">
            <text
               class="legendtext"
               text-anchor="start"
               x="40"
               y="5.85"
               style="font-family: 'Playfair Display', 'Helvetica Neue', Helvetica, Arial, sans-serif; font-size: 15px; fill: rgb(54, 54, 54); fill-opacity: 1; white-space: pre;"
               id="text10109">Blood</text>
            <g
               class="layers"
               style="opacity: 0.8;"
               id="g10121">
              <g
                 class="legendfill"
                 id="g10111" />
              <g
                 class="legendlines"
                 id="g10113" />
              <g
                 class="legendsymbols"
                 id="g10119">
                <g
                   class="legendpoints"
                   id="g10117">
                  <path
                     class="scatterpts"
                     transform="translate(20,0)"
                     d="M6,0A6,6 0 1,1 0,-6A6,6 0 0,1 6,0Z"
                     style="opacity: 0.8; stroke-width: 2px; fill: rgb(242, 122, 24); fill-opacity: 1; stroke: rgb(242, 122, 24); stroke-opacity: 1;"
                     id="path10115" />
                </g>
              </g>
            </g>
            <rect
               class="legendtoggle"
               x="0"
               y="-11.25"
               width="93.90625381469727"
               height="22.5"
               style="fill: rgb(0, 0, 0); fill-opacity: 0;"
               id="rect10123" />
          </g>
          <g
             class="traces"
             transform="translate(0,84.65)"
             style="opacity: 1;"
             id="g10143">
            <text
               class="legendtext"
               text-anchor="start"
               x="40"
               y="5.85"
               style="font-family: 'Playfair Display', 'Helvetica Neue', Helvetica, Arial, sans-serif; font-size: 15px; fill: rgb(54, 54, 54); fill-opacity: 1; white-space: pre;"
               id="text10127">N-Word</text>
            <g
               class="layers"
               style="opacity: 0.8;"
               id="g10139">
              <g
                 class="legendfill"
                 id="g10129" />
              <g
                 class="legendlines"
                 id="g10131" />
              <g
                 class="legendsymbols"
                 id="g10137">
                <g
                   class="legendpoints"
                   id="g10135">
                  <path
                     class="scatterpts"
                     transform="translate(20,0)"
                     d="M6,0A6,6 0 1,1 0,-6A6,6 0 0,1 6,0Z"
                     style="opacity: 0.8; stroke-width: 2px; fill: rgb(174, 7, 0); fill-opacity: 1; stroke: rgb(174, 7, 0); stroke-opacity: 1;"
                     id="path10133" />
                </g>
              </g>
            </g>
            <rect
               class="legendtoggle"
               x="0"
               y="-11.25"
               width="93.90625381469727"
               height="22.5"
               style="fill: rgb(0, 0, 0); fill-opacity: 0;"
               id="rect10141" />
          </g>
          <g
             class="traces"
             transform="translate(0,107.15)"
             style="opacity: 1;"
             id="g10161">
            <text
               class="legendtext"
               text-anchor="start"
               x="40"
               y="5.85"
               style="font-family: 'Playfair Display', 'Helvetica Neue', Helvetica, Arial, sans-serif; font-size: 15px; fill: rgb(54, 54, 54); fill-opacity: 1; white-space: pre;"
               id="text10145">Negro</text>
            <g
               class="layers"
               style="opacity: 0.8;"
               id="g10157">
              <g
                 class="legendfill"
                 id="g10147" />
              <g
                 class="legendlines"
                 id="g10149" />
              <g
                 class="legendsymbols"
                 id="g10155">
                <g
                   class="legendpoints"
                   id="g10153">
                  <path
                     class="scatterpts"
                     transform="translate(20,0)"
                     d="M6,0A6,6 0 1,1 0,-6A6,6 0 0,1 6,0Z"
                     style="opacity: 0.8; stroke-width: 2px; fill: rgb(121, 180, 115); fill-opacity: 1; stroke: rgb(121, 180, 115); stroke-opacity: 1;"
                     id="path10151" />
                </g>
              </g>
            </g>
            <rect
               class="legendtoggle"
               x="0"
               y="-11.25"
               width="93.90625381469727"
               height="22.5"
               style="fill: rgb(0, 0, 0); fill-opacity: 0;"
               id="rect10159" />
          </g>
          <g
             class="traces"
             transform="translate(0,129.65)"
             style="opacity: 1;"
             id="g10179">
            <text
               class="legendtext"
               text-anchor="start"
               x="40"
               y="5.85"
               style="font-family: 'Playfair Display', 'Helvetica Neue', Helvetica, Arial, sans-serif; font-size: 15px; fill: rgb(54, 54, 54); fill-opacity: 1; white-space: pre;"
               id="text10163">White</text>
            <g
               class="layers"
               style="opacity: 0.8;"
               id="g10175">
              <g
                 class="legendfill"
                 id="g10165" />
              <g
                 class="legendlines"
                 id="g10167" />
              <g
                 class="legendsymbols"
                 id="g10173">
                <g
                   class="legendpoints"
                   id="g10171">
                  <path
                     class="scatterpts"
                     transform="translate(20,0)"
                     d="M6,0A6,6 0 1,1 0,-6A6,6 0 0,1 6,0Z"
                     style="opacity: 0.8; stroke-width: 2px; fill: rgb(56, 114, 108); fill-opacity: 1; stroke: rgb(56, 114, 108); stroke-opacity: 1;"
                     id="path10169" />
                </g>
              </g>
            </g>
            <rect
               class="legendtoggle"
               x="0"
               y="-11.25"
               width="93.90625381469727"
               height="22.5"
               style="fill: rgb(0, 0, 0); fill-opacity: 0;"
               id="rect10177" />
          </g>
        </g>
      </g>
      <rect
         class="scrollbar"
         rx="20"
         ry="3"
         width="0"
         height="0"
         x="0"
         y="0"
         style="fill: rgb(128, 139, 164); fill-opacity: 1;"
         id="rect10185" />
    </g>
    <g
       class="g-gtitle"
       id="g10193">
      <text
         class="gtitle"
         x="387.283"
         y="25"
         text-anchor="middle"
         dy="0em"
         style="font-family: 'Playfair Display', 'Helvetica Neue', Helvetica, Arial, sans-serif; font-size: 21px; fill: rgb(54, 54, 54); opacity: 1; font-weight: normal; white-space: pre;"
         id="text10191">Use of Top 5 Racial words by Chapter <tspan
   style="font-style:italic"
   id="tspan10189">Absalom, Absalom!</tspan></text>
    </g>
    <g
       class="g-xtitle"
       transform="translate(0,-14.437393188476562)"
       id="g10197">
      <text
         class="xtitle"
         x="367.5"
         y="410"
         text-anchor="middle"
         style="font-family: 'Playfair Display', 'Helvetica Neue', Helvetica, Arial, sans-serif; font-size: 18px; fill: rgb(54, 54, 54); opacity: 1; font-weight: normal; white-space: pre;"
         id="text10195">Chapter</text>
    </g>
    <g
       class="g-ytitle"
       id="g10199" />
  </g>
</svg>
